<svg xmlns="http://www.w3.org/2000/svg" viewBox="0 0 440 526" role="img" aria-label="You did it celebration illustration">
  <path fill="currentColor" fill-rule="evenodd" d="
    M321 196 L322 195 L323 196 L322 197 Z
    M254 191 L252 188 L247 187 L242 191 L236 193 L226 193 L220 190 L216 190 L214 194 L218 199 L222 201 L233 203 L234 202 L240 202 L251 197 L254 194 Z
    M427 146 L422 146 L421 148 L421 163 L420 164 L419 177 L418 178 L415 193 L412 199 L411 204 L398 229 L390 240 L379 252 L379 255 L382 259 L386 259 L402 240 L409 229 L421 203 L426 186 L427 176 L428 175 L428 169 L429 168 L429 148 Z
    M200 137 L198 139 L198 144 L200 149 L200 161 L202 163 L206 164 L208 161 L208 148 L205 139 L202 137 Z
    M13 136 L11 139 L10 161 L11 162 L11 171 L12 172 L13 181 L17 194 L26 213 L35 226 L50 241 L53 241 L55 239 L54 234 L38 217 L32 208 L24 191 L23 185 L21 181 L20 171 L19 170 L19 157 L18 155 L19 154 L19 143 L20 142 L17 137 Z
    M258 130 L257 131 L257 136 L259 140 L259 145 L260 146 L260 156 L263 159 L266 159 L268 157 L268 146 L267 145 L266 136 L262 130 Z
    M322 101 L320 104 L323 111 L325 113 L330 113 L333 109 L332 104 L329 101 L326 100 Z
    M361 77 L358 77 L351 82 L335 97 L334 99 L337 104 L340 104 L348 100 L359 90 L364 82 Z
    M124 74 L129 73 L133 76 L133 81 L130 85 L124 85 L121 82 L121 77 Z
    M266 80 L286 92 L293 98 L302 108 L313 127 L317 141 L317 145 L318 146 L319 165 L318 166 L318 175 L317 176 L315 188 L306 208 L298 219 L292 225 L294 231 L299 232 L311 218 L315 216 L329 205 L348 186 L353 180 L361 167 L367 161 L371 159 L377 160 L383 165 L385 169 L385 183 L378 201 L364 222 L357 230 L344 242 L315 262 L295 272 L293 269 L293 261 L292 260 L292 255 L290 248 L288 246 L285 246 L283 248 L283 254 L285 261 L285 269 L286 270 L286 303 L285 304 L285 313 L284 314 L282 333 L281 334 L281 338 L279 344 L279 351 L284 354 L303 340 L320 333 L325 333 L326 332 L338 334 L342 338 L344 343 L345 353 L346 354 L346 367 L345 368 L344 379 L337 400 L323 428 L323 432 L326 435 L333 437 L335 440 L330 445 L320 449 L310 449 L302 446 L294 438 L291 432 L291 428 L290 427 L291 418 L302 397 L304 395 L309 383 L309 377 L307 374 L305 373 L299 373 L290 377 L285 378 L282 380 L277 381 L274 383 L269 384 L266 386 L261 387 L253 391 L248 392 L245 394 L240 395 L237 397 L218 403 L205 410 L192 419 L179 431 L162 452 L149 473 L142 494 L136 499 L122 505 L100 505 L99 504 L89 503 L85 501 L81 497 L81 491 L82 489 L86 485 L100 477 L105 473 L110 467 L114 459 L118 447 L121 442 L121 440 L132 418 L134 416 L142 401 L163 371 L168 356 L168 353 L171 344 L171 340 L172 339 L172 334 L173 333 L173 326 L174 325 L174 292 L173 291 L173 285 L169 278 L161 276 L151 271 L149 271 L129 259 L115 248 L94 226 L80 207 L71 190 L69 184 L69 180 L68 179 L68 169 L69 168 L69 165 L71 161 L78 155 L81 154 L89 154 L100 163 L118 186 L126 193 L129 202 L135 213 L144 225 L151 232 L162 240 L174 246 L184 248 L185 249 L197 249 L198 248 L198 243 L195 240 L187 240 L186 239 L178 238 L167 233 L158 227 L146 215 L139 205 L134 195 L131 185 L131 181 L130 180 L130 157 L131 156 L131 151 L136 134 L144 118 L156 102 L169 90 L188 79 L199 75 L207 74 L208 73 L213 73 L214 72 L237 72 L238 73 L243 73 L244 74 L252 75 Z
    M98 68 L97 69 L97 81 L98 82 L99 96 L98 97 L97 96 L92 96 L91 95 L86 95 L85 94 L80 94 L79 93 L72 92 L70 94 L71 98 L74 100 L82 101 L83 102 L88 102 L94 104 L102 104 L115 117 L117 117 L119 115 L118 111 L106 99 L103 71 L100 68 Z
    M120 67 L115 72 L114 75 L114 82 L116 86 L123 92 L126 92 L127 93 L134 92 L138 88 L140 84 L140 76 L138 72 L133 67 L130 66 L122 66 Z
    M259 68 L249 65 L239 64 L238 63 L229 63 L228 62 L209 63 L208 64 L203 64 L186 69 L172 76 L162 83 L155 89 L145 100 L136 113 L129 127 L125 139 L125 142 L123 147 L123 152 L122 153 L122 163 L121 164 L122 176 L121 177 L107 159 L97 149 L90 145 L82 144 L81 145 L77 145 L71 148 L67 151 L61 161 L60 164 L60 181 L63 191 L74 212 L92 236 L118 261 L132 271 L142 276 L144 278 L148 279 L155 283 L163 285 L165 287 L165 292 L166 293 L166 320 L165 321 L165 329 L164 330 L163 340 L162 341 L157 362 L154 368 L136 393 L127 408 L124 415 L122 417 L111 440 L107 453 L102 462 L94 469 L78 479 L73 486 L72 495 L74 501 L78 506 L86 511 L92 513 L97 513 L98 514 L116 514 L117 515 L121 515 L122 514 L129 513 L145 505 L150 499 L156 480 L171 456 L185 439 L203 423 L222 412 L246 404 L249 402 L254 401 L262 397 L270 395 L273 393 L278 392 L297 384 L298 385 L297 389 L295 391 L284 412 L283 420 L282 421 L283 432 L285 438 L290 446 L295 451 L303 456 L310 458 L323 458 L334 454 L337 452 L343 445 L343 438 L341 434 L336 430 L334 427 L343 409 L352 383 L352 379 L354 373 L354 351 L353 350 L352 342 L346 330 L341 326 L333 323 L321 323 L320 324 L316 324 L307 327 L291 336 L290 335 L290 332 L291 331 L292 319 L293 318 L293 309 L294 308 L294 284 L316 273 L339 258 L351 249 L370 230 L384 209 L390 196 L393 186 L393 179 L394 178 L393 177 L393 169 L390 161 L385 155 L375 150 L367 150 L361 153 L355 159 L351 166 L338 182 L323 196 L322 193 L325 184 L326 170 L327 169 L327 155 L326 154 L326 146 L325 145 L324 136 L320 124 L310 106 L303 97 L295 89 L275 75 Z
    M324 48 L322 48 L319 50 L319 54 L320 56 L325 60 L325 62 L309 84 L310 88 L313 91 L317 91 L333 66 L339 71 L342 71 L347 69 L346 63 Z
    M154 43 L151 45 L151 47 L159 59 L159 65 L155 68 L150 67 L147 65 L142 58 L138 57 L136 59 L136 61 L140 67 L147 73 L151 75 L159 75 L164 72 L167 65 L169 67 L171 67 L173 65 L173 62 L159 47 Z
    M248 34 L254 33 L256 35 L257 41 L252 44 L249 43 L246 40 L246 37 Z
    M197 30 L198 29 L208 30 L213 35 L213 40 L209 45 L205 46 L203 44 Z
    M301 26 L298 26 L296 28 L296 33 L301 39 L295 51 L292 60 L290 61 L284 57 L280 61 L280 63 L283 68 L287 72 L296 77 L300 77 L304 75 L303 70 L300 68 L298 65 L310 45 L317 46 L319 44 L319 40 L314 34 L311 33 Z
    M226 26 L224 29 L230 47 L232 49 L235 49 L236 48 L236 43 L231 28 L229 26 Z
    M192 23 L189 26 L189 31 L192 34 L192 36 L200 51 L200 53 L202 55 L205 55 L209 53 L212 53 L215 51 L219 45 L219 41 L220 40 L219 34 L216 28 L211 24 L204 21 L197 21 Z
    M219 13 L218 15 L219 20 L223 23 L227 23 L229 21 L228 15 L221 12 Z
    M260 10 L256 10 L255 11 L256 26 L255 27 L254 26 L246 26 L241 30 L239 35 L239 38 L242 45 L246 49 L250 51 L257 51 L260 49 L262 49 L264 46 L263 45 L262 13 Z
  "/>
</svg>
